Genre:Biography | Drama
Language:English
 
http://www.imdb.com/title/tt1616195/

Source:1080p.BluRay.x264-SPARKS Thanks!

Format : MPEG-4
Format profile : Base Media
Codec ID : isom
File size : 3.25 GiB
Duration : 2h 16mn
Overall bit rate mode : Variable
Overall bit rate : 3 396 Kbps

Video
ID : 1
Format : AVC
Format/Info : Advanced Video Codec
Format profile : High@L5.1
Format settings, CABAC : Yes
Format settings, ReFrames : 5 frames
Codec ID : avc1
Codec ID/Info : Advanced Video Coding
Duration : 2h 16mn
Bit rate : 3 000 Kbps
Maximum bit rate : 19.2 Mbps
Width : 1 280 pixels
Height : 536 pixels
Display aspect ratio : 2.40:1
Frame rate mode : Constant
Frame rate : 23.976 fps
Color space : YUV
Chroma subsampling : 4:2:0
Bit depth : 8 bits
Scan type : Progressive
Bits/(Pixel*Frame) : 0.182
Stream size : 2.83 GiB (87%)
Writing library : x264

Audio
ID : 2
Format : AAC
Format/Info : Advanced Audio Codec
Format profile : LC
Codec ID : 40
Duration : 2h 16mn
Bit rate mode : Variable
Bit rate : 428 Kbps
Maximum bit rate : 526 Kbps
Channel(s) : 6 channels
Channel positions : Front: L C R, Side: L R, LFE
Sampling rate : 48.0 KHz
Compression mode : Lossy
Stream size : 419 MiB (13%)


Plot:
As the face of law enforcement in America for almost 50 years, J. Edgar Hoover was feared and admired, reviled and revered. But behind closed doors, he held secrets that would have destroyed his image, his career and his life

